<svg width="335" height="85" viewBox="0 0 335 85" fill="none" xmlns="http://www.w3.org/2000/svg">
<g clip-path="url(#clip0_156_196)">
<path d="M34.2111 84.4116C33.6412 84.6267 33.0144 84.728 32.3369 84.728C31.1908 84.728 30.1903 84.4749 29.3355 83.9751C28.4807 83.4753 27.8222 82.7984 27.36 81.9569C26.8978 81.1155 26.6698 80.1855 26.6698 79.1733C26.6698 78.0725 26.8978 77.0855 27.36 76.2125C27.8222 75.3394 28.4617 74.6625 29.2912 74.169C30.1144 73.6755 31.0578 73.4351 32.1089 73.4351C32.7548 73.4351 33.3563 73.5237 33.9072 73.6945C34.458 73.8653 34.9456 74.0868 35.3761 74.3461L34.6796 76.0037C33.8565 75.428 33.0207 75.137 32.1722 75.137C31.5264 75.137 30.9185 75.3141 30.355 75.6621C29.7914 76.01 29.3419 76.4845 29.0126 77.0918C28.677 77.6929 28.5124 78.3572 28.5124 79.0721C28.5124 79.8312 28.6644 80.5145 28.9746 81.1155C29.2849 81.7165 29.7218 82.191 30.298 82.5263C30.8679 82.868 31.5327 83.0325 32.2799 83.0325C32.8181 83.0325 33.2993 82.9502 33.7299 82.7921C34.1604 82.6339 34.5213 82.4251 34.8189 82.172L35.5661 83.7537C35.2432 83.9878 34.7936 84.2092 34.2237 84.4243L34.2111 84.4116Z" fill="#768899"/>
<path d="M54.7073 76.2821C55.2139 75.4153 55.8977 74.7257 56.7652 74.207C57.6327 73.6882 58.5761 73.4351 59.6019 73.4351C60.6276 73.4351 61.5521 73.6945 62.4195 74.207C63.287 74.7257 63.9772 75.4153 64.4964 76.2884C65.0156 77.1614 65.2689 78.0978 65.2689 79.0974C65.2689 80.097 65.0156 81.0586 64.5027 81.919C63.9899 82.7794 63.2997 83.4627 62.4259 83.9688C61.5521 84.4749 60.615 84.728 59.6019 84.728C58.5888 84.728 57.6327 84.4749 56.7652 83.9751C55.8977 83.4753 55.2139 82.792 54.7073 81.9316C54.2008 81.0712 53.9475 80.1223 53.9475 79.091C53.9475 78.0598 54.2008 77.1425 54.7073 76.2757V76.2821ZM56.2903 81.0712C56.6322 81.6659 57.1008 82.1468 57.696 82.501C58.2912 82.8553 58.937 83.0325 59.6462 83.0325C60.3554 83.0325 60.9822 82.8553 61.5584 82.5074C62.1346 82.1594 62.5968 81.6849 62.9324 81.0776C63.2743 80.4766 63.439 79.8123 63.439 79.0974C63.439 78.3825 63.268 77.7182 62.9198 77.1108C62.5715 76.5035 62.1093 76.0227 61.5204 75.6684C60.9316 75.3141 60.292 75.137 59.5892 75.137C58.8864 75.137 58.2342 75.3141 57.6517 75.6684C57.0691 76.0227 56.6069 76.5035 56.2713 77.1108C55.9357 77.7182 55.7648 78.3825 55.7648 79.0974C55.7648 79.8123 55.9357 80.4765 56.284 81.0712H56.2903Z" fill="#768899"/>
<path d="M94.1105 73.5553V85.0063H94.0662L86.0881 77.2753L86.1324 84.6078H84.3405V73.1757H84.4291L92.3756 80.9953L92.3439 73.5553H94.1042H94.1105Z" fill="#768899"/>
<path d="M117.146 75.0547C116.601 75.0547 116.164 75.1749 115.848 75.4217C115.531 75.6621 115.367 75.9974 115.367 76.4212C115.367 76.8451 115.569 77.1804 115.968 77.4588C116.367 77.7372 116.931 78.0155 117.646 78.2876C118.191 78.4774 118.659 78.6988 119.052 78.9455C119.444 79.1923 119.761 79.5276 120.014 79.9578C120.267 80.3816 120.394 80.9194 120.394 81.5647C120.394 82.1531 120.248 82.6845 119.951 83.159C119.66 83.6335 119.229 84.0131 118.672 84.2978C118.115 84.5825 117.456 84.7216 116.696 84.7216C116.025 84.7216 115.367 84.6141 114.721 84.4116C114.075 84.2029 113.492 83.9182 112.986 83.5512L113.777 82.172C114.151 82.4567 114.594 82.6908 115.107 82.8806C115.62 83.0704 116.095 83.159 116.525 83.159C117.064 83.159 117.532 83.0325 117.937 82.7731C118.343 82.5137 118.545 82.1151 118.545 81.5837C118.545 81.1598 118.374 80.8055 118.039 80.5208C117.697 80.2361 117.228 79.9767 116.62 79.749C115.993 79.5149 115.468 79.2872 115.056 79.0594C114.638 78.8316 114.284 78.5153 113.986 78.1041C113.689 77.6929 113.537 77.1804 113.537 76.5604C113.537 75.6621 113.841 74.9345 114.455 74.3841C115.069 73.8337 115.873 73.5363 116.88 73.4984C117.608 73.4984 118.248 73.5806 118.805 73.7514C119.362 73.9223 119.869 74.1563 120.35 74.46L119.679 75.8139C118.729 75.3204 117.88 75.0674 117.14 75.0674L117.146 75.0547Z" fill="#768899"/>
<path d="M141.372 81.8115C141.593 82.1784 141.897 82.4694 142.283 82.6845C142.67 82.8996 143.088 83.0135 143.543 83.0135C143.999 83.0135 144.455 82.9059 144.841 82.6972C145.234 82.4821 145.538 82.1974 145.76 81.8304C145.981 81.4635 146.095 81.0649 146.095 80.6284V73.5553H147.843V80.679C147.843 81.4698 147.653 82.1721 147.273 82.7794C146.893 83.3931 146.374 83.8676 145.715 84.2155C145.057 84.5635 144.335 84.7343 143.543 84.7343C142.752 84.7343 142.03 84.5635 141.378 84.2155C140.726 83.8739 140.213 83.3931 139.833 82.7794C139.459 82.1657 139.269 81.4635 139.269 80.679V73.5553H141.03V80.6284C141.03 81.0523 141.144 81.4508 141.365 81.8115H141.372Z" fill="#768899"/>
<path d="M169.194 73.5553V82.9059H174.652V84.6078H167.421V73.5553H169.2H169.194Z" fill="#768899"/>
<path d="M199.106 73.5553V75.2572H196.25V84.6078H194.49V75.2572H191.71V73.5553H199.112H199.106Z" fill="#768899"/>
<path d="M222.869 82.0139H218.842L217.778 84.6078H216.031L220.925 73.0998H221.033L225.927 84.6078H223.888L222.869 82.0139ZM222.274 80.4955L220.893 77.0033L219.462 80.4955H222.274Z" fill="#768899"/>
<path d="M254.294 73.5553V85.0063H254.25L246.272 77.2753L246.316 84.6078H244.524V73.1757H244.613L252.559 80.9953L252.527 73.5553H254.288H254.294Z" fill="#768899"/>
<path d="M280.679 73.5553V75.2572H277.823V84.6078H276.063V75.2572H273.283V73.5553H280.685H280.679Z" fill="#768899"/>
<path d="M302.91 75.0547C302.366 75.0547 301.929 75.1749 301.612 75.4217C301.295 75.6621 301.131 75.9974 301.131 76.4212C301.131 76.8451 301.333 77.1804 301.732 77.4588C302.131 77.7372 302.695 78.0155 303.41 78.2876C303.955 78.4774 304.423 78.6988 304.816 78.9455C305.209 79.1923 305.525 79.5276 305.778 79.9578C306.032 80.3816 306.158 80.9194 306.158 81.5647C306.158 82.1531 306.013 82.6845 305.715 83.159C305.424 83.6335 304.993 84.0131 304.436 84.2978C303.879 84.5825 303.22 84.7216 302.461 84.7216C301.789 84.7216 301.131 84.6141 300.485 84.4116C299.839 84.2029 299.257 83.9182 298.75 83.5512L299.542 82.172C299.915 82.4567 300.358 82.6908 300.871 82.8806C301.384 83.0704 301.859 83.159 302.29 83.159C302.828 83.159 303.296 83.0325 303.702 82.7731C304.107 82.5137 304.309 82.1151 304.309 81.5837C304.309 81.1598 304.138 80.8055 303.803 80.5208C303.461 80.2361 302.992 79.9767 302.385 79.749C301.758 79.5149 301.232 79.2872 300.821 79.0594C300.403 78.8316 300.048 78.5153 299.751 78.1041C299.453 77.6929 299.301 77.1804 299.301 76.5604C299.301 75.6621 299.605 74.9345 300.219 74.3841C300.833 73.8337 301.637 73.5363 302.644 73.4984C303.372 73.4984 304.012 73.5806 304.569 73.7514C305.12 73.9159 305.633 74.1563 306.114 74.46L305.443 75.8139C304.493 75.3204 303.645 75.0674 302.904 75.0674L302.91 75.0547Z" fill="#768899"/>
<path d="M0 56.8976C0 61.9272 3.81811 62.4966 7.14234 62.4966H8.92793V37.6713H25.5744V36.8615H8.93426V18.6095H16.9757C22.4971 18.6095 28.5884 19.7419 31.1844 23.3987V17.7997H0V56.9039V56.8976Z" fill="#283B91"/>
<path d="M54.3211 16.9836C24.5233 16.9836 24.6056 63.3064 54.3211 63.3064C84.0365 63.3064 84.0365 16.9836 54.3211 16.9836ZM54.3211 62.4966C37.5923 62.4966 37.5163 17.7933 54.3211 17.7933C71.1258 17.7933 70.9675 62.4966 54.3211 62.4966Z" fill="#283B91"/>
<path d="M117.488 48.3821L95.3199 21.526C93.1291 18.7676 91.9893 17.7933 86.7972 17.7933H80.706L83.4667 21.1211V62.4966H84.2771V22.1776L117.488 62.4966H118.298V17.7933H117.488V48.3758V48.3821Z" fill="#283B91"/>
<path d="M123.978 25.9103C125.764 22.2599 128.201 18.6095 134.533 18.6095H138.104V56.9039C138.104 61.8513 141.922 62.5029 145.247 62.5029H147.032V18.6095H150.603C156.935 18.6095 159.373 22.3421 161.159 25.9103V17.7997H123.972V25.9103H123.978Z" fill="#283B91"/>
<path d="M185.118 16.9836C155.321 16.9836 155.403 63.3064 185.118 63.3064C214.834 63.3064 214.834 16.9836 185.118 16.9836ZM185.118 62.4966C168.39 62.4966 168.314 17.7933 185.118 17.7933C201.923 17.7933 201.765 62.4966 185.118 62.4966Z" fill="#283B91"/>
<path d="M244.632 47.0029C244.632 58.9284 239.598 62.4965 231.968 62.4965C223.926 62.4965 221.172 57.2266 221.172 46.0286V23.3923C221.172 18.3627 217.436 17.7933 214.106 17.7933H212.238V46.0286C212.238 57.6315 217.031 63.3063 231.48 63.3063C240.415 63.3063 245.448 59.3333 245.448 46.9966V17.7933H244.638V46.9966L244.632 47.0029Z" fill="#283B91"/>
<path d="M276.943 44.4027C284.655 42.7009 288.796 37.4245 288.796 31.9901C288.796 25.0119 281.489 17.7933 266.711 17.7933H252.825V56.8976C252.825 61.8449 256.643 62.4966 259.967 62.4966H261.753V44.9721H266.787C269.712 44.9721 270.2 45.5415 271.985 48.5402L277.671 58.359C279.134 60.7947 281.242 62.4966 284.978 62.4966H290.094L282.218 48.2998C280.755 45.706 279.292 44.5672 276.943 44.4027ZM269.794 44.1623H261.753V18.6095H266.787C274.664 18.6095 279.045 24.7778 279.045 31.9964C279.045 38.247 275.715 44.1686 269.788 44.1686L269.794 44.1623Z" fill="#283B91"/>
<path d="M300.168 47.3319C300.213 47.3572 300.194 47.3256 300.194 47.3256H300.168V47.3319Z" fill="#283B91"/>
<path d="M318.024 22.9052C316.403 19.1725 314.611 17.8756 310.553 17.7933H306.089L308.039 22.3358L291.715 62.4966H292.608L298.611 47.6292L299.022 46.598L299.06 46.4968L299.111 46.3702L308.438 23.3101L318.423 46.5917L318.455 46.6486C316.061 45.2188 313.199 44.4407 310.274 44.4407C306.12 44.4407 301.903 45.959 298.826 49.369L298.402 50.4635C301.656 46.8764 305.329 45.4149 308.881 45.4149C314.181 45.4149 319.063 48.8249 321.412 53.5698L321.456 53.6268L323.045 57.3784C324.666 61.111 326.458 62.4902 330.517 62.4902L334.981 62.408L318.012 22.8988L318.024 22.9052Z" fill="#283B91"/>
</g>
<defs>
<clipPath id="clip0_156_196">
<rect width="335" height="85" fill="white"/>
</clipPath>
</defs>
</svg>
